<?xml version="1.0" standalone="no"?>
<!DOCTYPE svg PUBLIC "-//W3C//DTD SVG 20010904//EN"
 "http://www.w3.org/TR/2001/REC-SVG-20010904/DTD/svg10.dtd">
<svg version="1.0" xmlns="http://www.w3.org/2000/svg"
 width="700.000000pt" height="700.000000pt" viewBox="0 0 700.000000 700.000000"
 preserveAspectRatio="xMidYMid meet">
<metadata>
Created by potrace 1.14, written by Peter Selinger 2001-2017
</metadata>
<g transform="translate(0.000000,700.000000) scale(0.100000,-0.100000)"
fill="#000000" stroke="none">
<path d="M1536 5183 c171 -311 413 -572 674 -731 l64 -39 12 -94 c33 -258 151
-597 293 -836 17 -29 29 -53 26 -53 -13 0 -201 74 -277 109 -201 93 -522 287
-512 311 24 64 1 112 -65 130 -45 12 -89 1 -142 -36 -46 -31 -79 -71 -184
-219 -253 -356 -467 -543 -704 -616 -56 -17 -82 -30 -105 -57 -57 -63 -56 -66
10 -58 234 27 478 118 684 254 105 70 237 201 309 307 30 44 56 82 57 84 2 2
25 -15 51 -38 346 -302 624 -466 1027 -607 242 -84 326 -95 597 -74 428 33
843 121 1212 257 54 19 99 34 101 32 2 -2 25 -38 51 -79 121 -190 286 -353
410 -404 130 -55 507 -107 779 -108 153 -1 165 1 212 24 75 37 112 110 88 173
-19 48 -199 72 -308 41 -115 -34 -312 -17 -517 44 -81 24 -99 44 -158 171 -39
83 -145 379 -138 386 2 2 24 -4 48 -13 68 -26 191 -24 256 5 40 18 56 20 71
12 71 -38 142 19 142 115 0 44 3 52 24 62 33 15 49 70 44 154 -3 64 -7 73 -34
97 -17 14 -44 50 -59 79 -36 67 -100 126 -173 160 -49 23 -70 27 -152 27 -84
0 -102 -3 -152 -28 -72 -35 -139 -100 -173 -167 -20 -40 -30 -50 -43 -45 -49
19 -67 16 -87 -16 -46 -73 -59 -78 -665 -264 -618 -189 -644 -195 -720 -157
-39 19 -41 19 -120 0 l-80 -19 -52 34 c-241 155 -476 494 -606 877 l-40 116
36 30 c64 54 52 65 -293 264 -291 168 -450 276 -540 366 -65 64 -77 72 -138
87 -36 9 -69 17 -72 17 -4 0 10 -30 31 -67z"/>
</g>
</svg>
